<?xml version="1.0" encoding="utf-8"?>
<!-- Generator: Adobe Illustrator 26.3.1, SVG Export Plug-In . SVG Version: 6.00 Build 0)  -->
<svg version="1.1" xmlns="http://www.w3.org/2000/svg" xmlns:xlink="http://www.w3.org/1999/xlink" x="0px" y="0px"
	 viewBox="0 0 28.5 28.39" style="enable-background:new 0 0 28.5 28.39;" xml:space="preserve">
<style type="text/css">
	.st0{fill:#12100B;}
</style>
<g id="Layer_1">
</g>
<g id="Livello_2">
</g>
<g id="Livello_3">
	<g>
		<path class="st0" d="M0.16,3.87c0-1.95,1.31-3.73,3.71-3.73s3.7,1.76,3.7,3.69c0,1.95-1.26,3.76-3.67,3.76
			C1.5,7.58,0.16,5.81,0.16,3.87 M5.96,3.87c0-1.34-0.62-2.5-2.06-2.5c-1.44,0-2.12,1.12-2.12,2.46c0,1.35,0.66,2.52,2.09,2.52
			C5.32,6.35,5.96,5.21,5.96,3.87"/>
		<path class="st0" d="M8.91,0.27h2.36c1.56,0,2.75,0.72,2.75,2.27c0,1.56-1.13,2.36-2.92,2.36h-0.66v2.56H8.91V0.27z M11.12,3.74
			c0.96,0,1.37-0.39,1.37-1.19c0-0.72-0.4-1.12-1.34-1.12h-0.71v2.31H11.12z"/>
		<polygon class="st0" points="15.31,0.27 19.45,0.27 19.45,1.52 16.81,1.52 16.81,3.14 19.14,3.14 19.14,4.33 16.81,4.33 
			16.81,6.2 19.53,6.2 19.53,7.45 15.31,7.45 		"/>
		<path class="st0" d="M21.02,0.27h1.53l2.59,3.72c0.43,0.62,0.69,1.09,0.75,1.21h0.02c-0.01-0.1-0.04-0.58-0.04-1.13v-3.8h1.38
			v7.19h-1.39l-2.79-3.99c-0.39-0.54-0.6-0.94-0.69-1.08h-0.02c0.01,0.1,0.04,0.51,0.04,0.96v4.11h-1.38V0.27z"/>
		<path class="st0" d="M0.56,9.69h2.17c2.83,0,4.11,1.42,4.11,3.5c0,2.07-1.31,3.69-4.16,3.69H0.56V9.69z M2.79,15.66
			c1.62,0,2.44-0.83,2.44-2.43c0-1.61-0.79-2.32-2.49-2.32H2.08v4.75H2.79z"/>
		<path class="st0" d="M10.26,9.69h1.47l2.82,7.19h-1.66l-0.49-1.35H9.52l-0.48,1.35H7.51L10.26,9.69z M11.96,14.31l-0.62-1.71
			c-0.23-0.62-0.32-1.08-0.39-1.24h-0.02c-0.05,0.17-0.17,0.66-0.38,1.24l-0.61,1.71H11.96z"/>
		<polygon class="st0" points="17.2,10.95 15.21,10.95 15.21,9.69 20.7,9.69 20.7,10.95 18.73,10.95 18.73,16.88 17.2,16.88 		"/>
		<path class="st0" d="M24.12,9.69h1.47l2.82,7.19h-1.66l-0.49-1.35h-2.87l-0.48,1.35h-1.53L24.12,9.69z M25.82,14.31l-0.62-1.71
			c-0.23-0.62-0.32-1.08-0.39-1.24H24.8c-0.05,0.17-0.17,0.66-0.38,1.24l-0.61,1.71H25.82z"/>
		<polygon class="st0" points="0.56,18.82 2.15,18.82 2.15,22.63 6.84,22.63 6.84,18.82 8.43,18.82 8.43,28.19 6.84,28.19 
			6.84,23.94 2.15,23.94 2.15,28.19 0.56,28.19 		"/>
		<path class="st0" d="M11.13,24.61v-5.8h1.59v5.65c0,1.75,0.68,2.58,2.28,2.58c1.52,0,2.2-0.96,2.2-2.42v-5.8h1.48v5.67
			c0,2.43-1.21,3.87-3.72,3.87C12.31,28.36,11.13,26.95,11.13,24.61"/>
		<path class="st0" d="M21.57,18.81h2.83c1.75,0,3.17,0.61,3.17,2.34c0,1.17-0.65,1.84-1.68,2.11v0.03
			c1.14,0.18,2.07,0.96,2.07,2.28c0,1.91-1.48,2.62-3.6,2.62h-2.79V18.81z M24.22,22.74c1.23,0,1.76-0.44,1.76-1.38
			c0-0.9-0.59-1.3-1.73-1.3h-1.11v2.68H24.22z M24.3,26.94c1.36,0,2.04-0.42,2.04-1.45c0-0.99-0.55-1.55-1.96-1.55h-1.25v3H24.3z"/>
	</g>
</g>
</svg>
